<?xml version="1.0" encoding="UTF-8" standalone="no"?>
<!-- Created with Inkscape (http://www.inkscape.org/) -->

<svg
   xmlns:dc="http://purl.org/dc/elements/1.1/"
   xmlns:cc="http://creativecommons.org/ns#"
   xmlns:rdf="http://www.w3.org/1999/02/22-rdf-syntax-ns#"
   xmlns:svg="http://www.w3.org/2000/svg"
   xmlns="http://www.w3.org/2000/svg"
   xmlns:sodipodi="http://sodipodi.sourceforge.net/DTD/sodipodi-0.dtd"
   xmlns:inkscape="http://www.inkscape.org/namespaces/inkscape"
   width="95.999992"
   height="92.535461"
   viewBox="0 0 25.399998 24.483343"
   version="1.1"
   id="svg8"
   inkscape:version="0.92.5 (2060ec1f9f, 2020-04-08)"
   sodipodi:docname="zg_w.svg">
  <defs
     id="defs2">
    <inkscape:path-effect
       effect="spiro"
       id="path-effect1731"
       is_visible="true" />
    <inkscape:path-effect
       effect="spiro"
       id="path-effect1727"
       is_visible="true" />
    <inkscape:path-effect
       effect="spiro"
       id="path-effect1723"
       is_visible="true" />
  </defs>
  <sodipodi:namedview
     id="base"
     pagecolor="#ffffff"
     bordercolor="#666666"
     borderopacity="1.0"
     inkscape:pageopacity="0.0"
     inkscape:pageshadow="2"
     inkscape:zoom="10.456914"
     inkscape:cx="19.349184"
     inkscape:cy="47.435267"
     inkscape:document-units="mm"
     inkscape:current-layer="svg8"
     showgrid="false"
     fit-margin-top="0"
     fit-margin-left="0"
     fit-margin-right="0"
     fit-margin-bottom="0"
     inkscape:window-width="1366"
     inkscape:window-height="703"
     inkscape:window-x="0"
     inkscape:window-y="0"
     inkscape:window-maximized="1"
     showguides="true"
     inkscape:guide-bbox="true"
     inkscape:snap-bbox="true"
     inkscape:bbox-paths="true"
     inkscape:bbox-nodes="true"
     inkscape:snap-bbox-edge-midpoints="true"
     inkscape:snap-bbox-midpoints="true"
     inkscape:object-paths="true"
     inkscape:snap-intersection-paths="true"
     inkscape:snap-smooth-nodes="true"
     inkscape:snap-others="true"
     inkscape:snap-midpoints="true"
     inkscape:snap-object-midpoints="true"
     inkscape:snap-center="true"
     inkscape:snap-global="true"
     units="px"
     inkscape:pagecheckerboard="true"
     inkscape:snap-page="true">
    <sodipodi:guide
       position="13.105698,12.241671"
       orientation="0,1"
       id="guide2280"
       inkscape:locked="false"
       inkscape:label=""
       inkscape:color="rgb(0,0,255)" />
    <sodipodi:guide
       position="12.7,16.24749"
       orientation="1,0"
       id="guide2282"
       inkscape:locked="false"
       inkscape:label=""
       inkscape:color="rgb(0,0,255)" />
  </sodipodi:namedview>
  <metadata
     id="metadata5">
    <rdf:RDF>
      <cc:Work
         rdf:about="">
        <dc:format>image/svg+xml</dc:format>
        <dc:type
           rdf:resource="http://purl.org/dc/dcmitype/StillImage" />
        <dc:title></dc:title>
      </cc:Work>
    </rdf:RDF>
  </metadata>
  <path
     sodipodi:nodetypes="ccsccscccccccsccccscccccccc"
     inkscape:connector-curvature="0"
     id="path849"
     d="M 11.51676,24.396576 C 9.4069472,24.047972 7.6414482,23.325426 6.1380196,22.195278 4.8700206,21.242106 3.081545,19.136524 1.784725,17.070126 1.1249386,16.018802 0,13.893992 0,13.693268 L 15.704869,1.296864 c 0,0 -1.304732,0.06794 -6.033709,0.03566 L 4.442389,1.296864 V 0.648434 0 h 6.495464 6.495462 L 18.625529,1.053024 2.2530912,13.976362 c 0,0 -0.103996,-0.275534 0,0 0.2057938,0.54521 1.357366,2.481324 2.067755,3.368242 4.4123586,6.297974 10.2230668,7.099302 15.1650328,3.174148 5.389313,-4.386068 5.348983,-11.8804964 0.207782,-16.0797902 L 13.316037,9.797264 c -0.14604,-0.09026 -0.96442,-1.0986982 -0.96442,-1.188392 0,-0.06432 7.575058,-6.382622 7.575058,-6.382622 0,0 0.11432,0.14474 1.149385,1.0363778 1.984728,1.709736 3.393498,3.727852 4.079808,6.452934 0.220496,0.8755002 0.242428,1.1079542 0.244118,2.5876942 0.0022,2.153212 -0.277496,3.493058 -1.096344,5.246818 -0.756802,1.620866 -2.42349,3.574284 -4.019568,4.711062 -1.331543,0.948368 -2.988745,1.70448 -4.474767,2.041658 -0.833998,0.18922 -3.378425,0.244818 -4.292554,0.0938 z"
     style="display:inline;fill:#ffffff;stroke-width:0.08788042" />
</svg>
